<svg xmlns="http://www.w3.org/2000/svg" viewBox="0 0 3840 64"><defs><style>.cls-1{fill:#e02742;}.cls-2{opacity:0.1;}.cls-23,.cls-25,.cls-3{fill:none;}.cls-3{stroke:#a39;}.cls-23,.cls-3{stroke-miterlimit:10;}.cls-25,.cls-3{stroke-width:0.5px;}.cls-4{opacity:0.3;}.cls-5{opacity:0.6;}.cls-6{opacity:0.8;}.cls-7{fill:#4787ff;}.cls-8{fill:#90005a;}.cls-9{fill:#8de9c2;}.cls-10{fill:#f38faa;}.cls-11{fill:#ffe82e;}.cls-12{fill:#93d0f9;}.cls-13{fill:#9335ff;}.cls-14{fill:#d80039;}.cls-15{fill:#ff6104;}.cls-16{fill:#8896f4;}.cls-17{opacity:0.25;}.cls-18{opacity:0.4;}.cls-19{opacity:0.2;}.cls-20{fill:#d46abf;}.cls-21{opacity:0.7;}.cls-22{fill:#d34c57;}.cls-23{stroke:#f52700;stroke-width:0.25px;}.cls-24{fill:#f52700;}.cls-25{stroke:#000;stroke-linecap:round;stroke-linejoin:round;}.cls-26{fill:#aab8c2;}</style></defs><title>lМонтажная область 1</title><g id="_60" data-name="60"><g id="_1" data-name="1"><path class="cls-1" d="M3826.2,24.78c0,.17,0,.32,0,.49-.27,6.68-6.26,12.06-6.26,12.06L3808,48l-11.92-10.67s-6-5.39-6.26-12.08c0-.16,0-.31,0-.47,0-4.85,4.22-8.78,9.42-8.78a9.66,9.66,0,0,0,17.56,0C3822,16,3826.2,19.93,3826.2,24.78Z"/></g></g><g id="_59" data-name="59"><g id="_1_копия_" data-name="1 (копия)"><path class="cls-1" d="M3762.2,24.78c0,.17,0,.32,0,.49-.27,6.68-6.26,12.06-6.26,12.06L3744,48l-11.92-10.67s-6-5.39-6.26-12.08c0-.16,0-.31,0-.47,0-4.85,4.22-8.78,9.42-8.78a9.66,9.66,0,0,0,17.56,0C3758,16,3762.2,19.93,3762.2,24.78Z"/></g></g><g id="_58" data-name="58"><g id="_1_копия_2" data-name="1 копия 2"><path class="cls-1" d="M3698.2,24.78c0,.17,0,.32,0,.49-.27,6.68-6.26,12.06-6.26,12.06L3680,48l-11.92-10.67s-6-5.39-6.26-12.08c0-.16,0-.31,0-.47,0-4.85,4.22-8.78,9.42-8.78a9.66,9.66,0,0,0,17.56,0C3694,16,3698.2,19.93,3698.2,24.78Z"/></g></g><g id="_57" data-name="57"><g id="_1_копия_3" data-name="1 копия 3"><path class="cls-1" d="M3634.2,24.78c0,.17,0,.32,0,.49-.27,6.68-6.26,12.06-6.26,12.06L3616,48l-11.92-10.67s-6-5.39-6.26-12.08c0-.16,0-.31,0-.47,0-4.85,4.22-8.78,9.42-8.78a9.66,9.66,0,0,0,17.56,0C3630,16,3634.2,19.93,3634.2,24.78Z"/></g></g><g id="_56" data-name="56"><g id="_1_копия_4" data-name="1 копия 4"><path class="cls-1" d="M3570.2,24.78c0,.17,0,.32,0,.49-.27,6.68-6.26,12.06-6.26,12.06L3552,48l-11.92-10.67s-6-5.39-6.26-12.08c0-.16,0-.31,0-.47,0-4.85,4.22-8.78,9.42-8.78a9.66,9.66,0,0,0,17.56,0C3566,16,3570.2,19.93,3570.2,24.78Z"/></g></g><g id="_55" data-name="55"><g id="_1_копия_5" data-name="1 копия 5"><path class="cls-1" d="M3506.2,24.78c0,.17,0,.32,0,.49-.27,6.68-6.26,12.06-6.26,12.06L3488,48l-11.92-10.67s-6-5.39-6.26-12.08c0-.16,0-.31,0-.47,0-4.85,4.22-8.78,9.42-8.78a9.66,9.66,0,0,0,17.56,0C3502,16,3506.2,19.93,3506.2,24.78Z"/></g></g><g id="_54" data-name="54"><g id="_1_копия_6" data-name="1 копия 6"><path class="cls-1" d="M3442.2,24.78c0,.17,0,.32,0,.49-.27,6.68-6.26,12.06-6.26,12.06L3424,48l-11.92-10.67s-6-5.39-6.26-12.08c0-.16,0-.31,0-.47,0-4.85,4.22-8.78,9.42-8.78a9.66,9.66,0,0,0,17.56,0C3438,16,3442.2,19.93,3442.2,24.78Z"/></g></g><g id="_53" data-name="53"><g id="_1_копия_7" data-name="1 копия 7"><path class="cls-1" d="M3378.2,24.78c0,.17,0,.32,0,.49-.27,6.68-6.26,12.06-6.26,12.06L3360,48l-11.92-10.67s-6-5.39-6.26-12.08c0-.16,0-.31,0-.47,0-4.85,4.22-8.78,9.42-8.78a9.66,9.66,0,0,0,17.56,0C3374,16,3378.2,19.93,3378.2,24.78Z"/></g></g><g id="_52" data-name="52"><g id="_1_копия_8" data-name="1 копия 8"><path class="cls-1" d="M3314.2,24.78c0,.17,0,.32,0,.49-.27,6.68-6.26,12.06-6.26,12.06L3296,48l-11.92-10.67s-6-5.39-6.26-12.08c0-.16,0-.31,0-.47,0-4.85,4.22-8.78,9.42-8.78a9.66,9.66,0,0,0,17.56,0C3310,16,3314.2,19.93,3314.2,24.78Z"/></g></g><g id="_51" data-name="51"><g id="_1_копия_9" data-name="1 копия 9"><path class="cls-1" d="M3250.2,24.78c0,.17,0,.32,0,.49-.27,6.68-6.26,12.06-6.26,12.06L3232,48l-11.92-10.67s-6-5.39-6.26-12.08c0-.16,0-.31,0-.47,0-4.85,4.22-8.78,9.42-8.78a9.66,9.66,0,0,0,17.56,0C3246,16,3250.2,19.93,3250.2,24.78Z"/></g></g><g id="_50" data-name="50"><g id="_1_копия_10" data-name="1 копия 10"><path class="cls-1" d="M3186.53,24.78c0,.17,0,.32,0,.49-.28,6.68-6.26,12.06-6.26,12.06L3168.33,48l-11.92-10.67s-6-5.39-6.26-12.08c0-.16,0-.31,0-.47,0-4.85,4.22-8.78,9.41-8.78a9.67,9.67,0,0,0,17.57,0C3182.31,16,3186.53,19.93,3186.53,24.78Z"/></g></g><g id="_49" data-name="49"><path class="cls-1" d="M3121.82,25.26c0,.16,0,.31,0,.47-.27,6.47-6.07,11.69-6.07,11.69l-11.55,10.33-11.55-10.33s-5.81-5.23-6.06-11.71c0-.15,0-.3,0-.45,0-4.7,4.09-8.51,9.12-8.51a9.36,9.36,0,0,0,17,0C3117.73,16.75,3121.82,20.56,3121.82,25.26Z"/></g><g id="_48" data-name="48"><path class="cls-1" d="M3057.82,25.26c0,.16,0,.31,0,.47-.27,6.47-6.07,11.69-6.07,11.69l-11.55,10.33-11.55-10.33s-5.81-5.23-6.06-11.71c0-.15,0-.3,0-.45,0-4.7,4.09-8.51,9.12-8.51a9.36,9.36,0,0,0,17,0C3053.73,16.75,3057.82,20.56,3057.82,25.26Z"/></g><g id="_47" data-name="47"><path class="cls-1" d="M2994.06,25.26c0,.16,0,.31,0,.47-.27,6.47-6.07,11.69-6.07,11.69l-11.55,10.33-11.54-10.33s-5.82-5.23-6.07-11.71c0-.15,0-.3,0-.45,0-4.7,4.08-8.51,9.11-8.51a9.36,9.36,0,0,0,17,0C2990,16.75,2994.06,20.56,2994.06,25.26Z"/></g><g id="_46" data-name="46"><path class="cls-1" d="M2930.06,25.26c0,.16,0,.31,0,.47-.27,6.47-6.07,11.69-6.07,11.69l-11.55,10.33-11.54-10.33s-5.82-5.23-6.07-11.71c0-.15,0-.3,0-.45,0-4.7,4.08-8.51,9.11-8.51a9.36,9.36,0,0,0,17,0C2926,16.75,2930.06,20.56,2930.06,25.26Z"/></g><g id="_45" data-name="45"><path class="cls-1" d="M2866.06,25.26c0,.16,0,.31,0,.47-.27,6.47-6.07,11.69-6.07,11.69l-11.55,10.33-11.54-10.33s-5.82-5.23-6.07-11.71c0-.15,0-.3,0-.45,0-4.7,4.08-8.51,9.11-8.51a9.36,9.36,0,0,0,17,0C2862,16.75,2866.06,20.56,2866.06,25.26Z"/></g><g id="_44" data-name="44"><path class="cls-1" d="M2802.06,25.26c0,.16,0,.31,0,.47-.27,6.47-6.07,11.69-6.07,11.69l-11.55,10.33-11.54-10.33s-5.82-5.23-6.07-11.71c0-.15,0-.3,0-.45,0-4.7,4.08-8.51,9.11-8.51a9.36,9.36,0,0,0,17,0C2798,16.75,2802.06,20.56,2802.06,25.26Z"/></g><g id="_43" data-name="43"><path class="cls-1" d="M2738.06,25.26c0,.16,0,.31,0,.47-.27,6.47-6.07,11.69-6.07,11.69l-11.55,10.33-11.54-10.33s-5.82-5.23-6.07-11.71c0-.15,0-.3,0-.45,0-4.7,4.08-8.51,9.11-8.51a9.36,9.36,0,0,0,17,0C2734,16.75,2738.06,20.56,2738.06,25.26Z"/></g><g id="_42" data-name="42"><path class="cls-1" d="M2674.06,25.26c0,.16,0,.31,0,.47-.27,6.47-6.07,11.69-6.07,11.69l-11.55,10.33-11.54-10.33s-5.82-5.23-6.07-11.71c0-.15,0-.3,0-.45,0-4.7,4.08-8.51,9.11-8.51a9.36,9.36,0,0,0,17,0C2670,16.75,2674.06,20.56,2674.06,25.26Z"/></g><g id="_41" data-name="41"><path class="cls-1" d="M2610.06,25.26c0,.16,0,.31,0,.47-.27,6.47-6.07,11.69-6.07,11.69l-11.55,10.33-11.54-10.33s-5.82-5.23-6.07-11.71c0-.15,0-.3,0-.45,0-4.7,4.08-8.51,9.11-8.51a9.36,9.36,0,0,0,17,0C2606,16.75,2610.06,20.56,2610.06,25.26Z"/></g><g id="_40" data-name="40"><path class="cls-1" d="M2546.06,25.26c0,.16,0,.31,0,.47-.27,6.47-6.07,11.69-6.07,11.69l-11.55,10.33-11.54-10.33s-5.82-5.23-6.07-11.71c0-.15,0-.3,0-.45,0-4.7,4.08-8.51,9.11-8.51a9.36,9.36,0,0,0,17,0C2542,16.75,2546.06,20.56,2546.06,25.26Z"/></g><g id="_39" data-name="39"><path class="cls-1" d="M2481.73,25.38c0,.15,0,.29,0,.44-.26,6.13-5.75,11.07-5.75,11.07L2465,46.68l-10.94-9.79s-5.5-4.95-5.75-11.08c0-.15,0-.29,0-.43,0-4.45,3.87-8.06,8.64-8.06a8.86,8.86,0,0,0,16.11,0C2477.86,17.32,2481.73,20.93,2481.73,25.38Z"/></g><g id="_38" data-name="38"><path class="cls-1" d="M2415.28,26.11c0,.13,0,.26,0,.4-.22,5.45-5.11,9.84-5.11,9.84l-9.73,8.71-9.72-8.71s-4.9-4.4-5.11-9.86c0-.13,0-.25,0-.38a7.45,7.45,0,0,1,7.69-7.17,7.88,7.88,0,0,0,14.33,0A7.44,7.44,0,0,1,2415.28,26.11Z"/><g id="Слой_79_копия24_" data-name="Слой 79 (копия24)"><g class="cls-2"><line class="cls-3" x1="2400.44" y1="7.83" x2="2400.44" y2="6.8"/></g><g class="cls-2"><line class="cls-3" x1="2377.9" y1="25.53" x2="2376.47" y2="25.06"/></g><g class="cls-2"><line class="cls-3" x1="2386.04" y1="49.17" x2="2385.06" y2="50.53"/></g><g class="cls-2"><line class="cls-3" x1="2415.74" y1="50.57" x2="2414.74" y2="49.19"/></g><g class="cls-2"><line class="cls-3" x1="2424.4" y1="24.99" x2="2422.9" y2="25.48"/></g></g></g><g id="_37" data-name="37"><path class="cls-1" d="M2336.52,22.49a8.66,8.66,0,0,1,8.06-5.17c4.77,0,8.64,3.61,8.64,8.06,0,.15,0,.29,0,.44-.26,6.13-5.75,11.07-5.75,11.07l-10.94,9.79-10.93-9.79s-5.51-4.95-5.75-11.08c0-.15,0-.29,0-.43,0-4.45,3.87-8.06,8.64-8.06A8.63,8.63,0,0,1,2336.52,22.49Z"/><g id="Слой_79_копия23_" data-name="Слой 79 (копия23)"><g class="cls-4"><line class="cls-3" x1="2336.53" y1="7.83" x2="2336.53" y2="6.8"/></g><g class="cls-4"><line class="cls-3" x1="2313.99" y1="25.53" x2="2312.56" y2="25.06"/></g><g class="cls-4"><line class="cls-3" x1="2322.13" y1="49.17" x2="2321.15" y2="50.53"/></g><g class="cls-4"><line class="cls-3" x1="2351.83" y1="50.57" x2="2350.83" y2="49.19"/></g><g class="cls-4"><line class="cls-3" x1="2360.49" y1="24.99" x2="2358.99" y2="25.48"/></g></g></g><g id="_36" data-name="36"><path class="cls-1" d="M2290.06,25.26c0,.16,0,.31,0,.47-.27,6.47-6.07,11.69-6.07,11.69l-11.55,10.33-11.54-10.33s-5.82-5.23-6.07-11.71c0-.15,0-.3,0-.45,0-4.7,4.08-8.51,9.11-8.51a9.36,9.36,0,0,0,17,0C2286,16.75,2290.06,20.56,2290.06,25.26Z"/><g id="Слой_79_копия22_" data-name="Слой 79 (копия22)"><g class="cls-5"><line class="cls-3" x1="2272.44" y1="7.83" x2="2272.44" y2="6.8"/></g><g class="cls-5"><line class="cls-3" x1="2249.9" y1="25.53" x2="2248.47" y2="25.06"/></g><g class="cls-5"><line class="cls-3" x1="2258.04" y1="49.17" x2="2257.06" y2="50.53"/></g><g class="cls-5"><line class="cls-3" x1="2287.74" y1="50.57" x2="2286.74" y2="49.19"/></g><g class="cls-5"><line class="cls-3" x1="2296.4" y1="24.99" x2="2294.9" y2="25.48"/></g></g></g><g id="_35" data-name="35"><path class="cls-1" d="M2226.63,24.78c0,.17,0,.32,0,.49-.28,6.68-6.26,12.06-6.26,12.06L2208.43,48l-11.92-10.67s-6-5.39-6.26-12.08c0-.16,0-.31,0-.47,0-4.85,4.22-8.78,9.41-8.78a9.67,9.67,0,0,0,17.57,0C2222.41,16,2226.63,19.93,2226.63,24.78Z"/><g id="Слой_79_копия21_" data-name="Слой 79 (копия21)"><g class="cls-6"><line class="cls-3" x1="2208.44" y1="7.83" x2="2208.44" y2="6.8"/></g><g class="cls-6"><line class="cls-3" x1="2185.9" y1="25.53" x2="2184.47" y2="25.06"/></g><g class="cls-6"><line class="cls-3" x1="2194.04" y1="49.17" x2="2193.06" y2="50.53"/></g><g class="cls-6"><line class="cls-3" x1="2223.74" y1="50.57" x2="2222.74" y2="49.19"/></g><g class="cls-6"><line class="cls-3" x1="2232.4" y1="24.99" x2="2230.9" y2="25.48"/></g></g><g id="Слой_101_копия_11" data-name="Слой 101 копия 11"><g class="cls-2"><path class="cls-7" d="M2203.18,3.67a1.5,1.5,0,0,0,0-3,1.5,1.5,0,0,0,0,3Z"/></g><g class="cls-2"><path class="cls-8" d="M2198.31,9.56a1.5,1.5,0,0,0,0-3,1.5,1.5,0,0,0,0,3Z"/></g><g class="cls-2"><path class="cls-9" d="M2235.56,46.81a1.5,1.5,0,0,0,0-3,1.5,1.5,0,0,0,0,3Z"/></g><g class="cls-2"><path class="cls-10" d="M2238.17,53.67a1.5,1.5,0,0,0,0-3,1.5,1.5,0,0,0,0,3Z"/></g><g class="cls-2"><path class="cls-11" d="M2230.79,14.5a1.5,1.5,0,0,0,0-3,1.5,1.5,0,0,0,0,3Z"/></g><g class="cls-2"><path class="cls-12" d="M2238.17,13.7a1.5,1.5,0,0,0,0-3,1.5,1.5,0,0,0,0,3Z"/></g><g class="cls-2"><path class="cls-13" d="M2179.25,36.19a1.5,1.5,0,0,0,0-3,1.5,1.5,0,0,0,0,3Z"/></g><g class="cls-2"><path class="cls-14" d="M2184.13,39.44a1.5,1.5,0,0,0,0-3,1.5,1.5,0,0,0,0,3Z"/></g><g class="cls-2"><path class="cls-15" d="M2199.12,63.67a1.5,1.5,0,0,0,0-3,1.5,1.5,0,0,0,0,3Z"/></g><g class="cls-2"><path class="cls-16" d="M2204.06,60.25a1.5,1.5,0,0,0,0-3,1.5,1.5,0,0,0,0,3Z"/></g></g></g><g id="_34" data-name="34"><path class="cls-1" d="M2163.31,24.49c0,.17,0,.33,0,.5-.28,7-6.51,12.56-6.51,12.56l-12.41,11.11L2132,37.55s-6.24-5.62-6.51-12.58c0-.16,0-.32,0-.48,0-5,4.39-9.15,9.8-9.15a10.06,10.06,0,0,0,18.29,0C2158.92,15.34,2163.31,19.44,2163.31,24.49Z"/><g id="Слой_79_копия20_" data-name="Слой 79 (копия20)"><line class="cls-3" x1="2144.4" y1="7.83" x2="2144.4" y2="6.8"/><line class="cls-3" x1="2121.86" y1="25.53" x2="2120.43" y2="25.06"/><line class="cls-3" x1="2130" y1="49.17" x2="2129.02" y2="50.53"/><line class="cls-3" x1="2159.7" y1="50.57" x2="2158.7" y2="49.19"/><line class="cls-3" x1="2168.36" y1="24.99" x2="2166.86" y2="25.48"/></g><g id="Слой_101_копия_10" data-name="Слой 101 копия 10"><g class="cls-17"><path class="cls-7" d="M2139.18,3.67a1.5,1.5,0,0,0,0-3,1.5,1.5,0,0,0,0,3Z"/></g><g class="cls-17"><path class="cls-8" d="M2134.31,9.56a1.5,1.5,0,0,0,0-3,1.5,1.5,0,0,0,0,3Z"/></g><g class="cls-17"><path class="cls-9" d="M2171.56,46.81a1.5,1.5,0,0,0,0-3,1.5,1.5,0,0,0,0,3Z"/></g><g class="cls-17"><path class="cls-10" d="M2174.17,53.67a1.5,1.5,0,0,0,0-3,1.5,1.5,0,0,0,0,3Z"/></g><g class="cls-17"><path class="cls-11" d="M2166.79,14.5a1.5,1.5,0,0,0,0-3,1.5,1.5,0,0,0,0,3Z"/></g><g class="cls-17"><path class="cls-12" d="M2174.17,13.7a1.5,1.5,0,0,0,0-3,1.5,1.5,0,0,0,0,3Z"/></g><g class="cls-17"><path class="cls-13" d="M2115.25,36.19a1.5,1.5,0,0,0,0-3,1.5,1.5,0,0,0,0,3Z"/></g><g class="cls-17"><path class="cls-14" d="M2120.13,39.44a1.5,1.5,0,0,0,0-3,1.5,1.5,0,0,0,0,3Z"/></g><g class="cls-17"><path class="cls-15" d="M2135.12,63.67a1.5,1.5,0,0,0,0-3,1.5,1.5,0,0,0,0,3Z"/></g><g class="cls-17"><path class="cls-16" d="M2140.06,60.25a1.5,1.5,0,0,0,0-3,1.5,1.5,0,0,0,0,3Z"/></g></g></g><g id="_33" data-name="33"><path class="cls-1" d="M2100.19,24.16c0,.18,0,.35,0,.53-.3,7.26-6.8,13.1-6.8,13.1l-13,11.59-12.94-11.59s-6.52-5.86-6.8-13.12c0-.17,0-.34,0-.51,0-5.26,4.58-9.53,10.22-9.53a10.5,10.5,0,0,0,19.08,0C2095.61,14.63,2100.19,18.9,2100.19,24.16Z"/><g id="Слой_79_копия19_" data-name="Слой 79 (копия19)"><line class="cls-3" x1="2080.47" y1="9.43" x2="2080.47" y2="6.8"/><line class="cls-3" x1="2058.12" y1="25.61" x2="2055.61" y2="24.79"/><line class="cls-3" x1="2066.76" y1="48.22" x2="2065.09" y2="50.53"/><line class="cls-3" x1="2095.77" y1="50.57" x2="2094.03" y2="48.18"/><line class="cls-3" x1="2105.25" y1="24.79" x2="2102.55" y2="25.67"/></g><g id="Слой_101_копия_9" data-name="Слой 101 копия 9"><g class="cls-18"><path class="cls-7" d="M2074.18,3.67a1.5,1.5,0,0,0,0-3,1.5,1.5,0,0,0,0,3Z"/></g><g class="cls-18"><path class="cls-8" d="M2069.31,9.56a1.5,1.5,0,0,0,0-3,1.5,1.5,0,0,0,0,3Z"/></g><g class="cls-18"><path class="cls-9" d="M2106.56,46.81a1.5,1.5,0,0,0,0-3,1.5,1.5,0,0,0,0,3Z"/></g><g class="cls-18"><path class="cls-10" d="M2109.17,53.67a1.5,1.5,0,0,0,0-3,1.5,1.5,0,0,0,0,3Z"/></g><g class="cls-18"><path class="cls-11" d="M2101.79,14.5a1.5,1.5,0,0,0,0-3,1.5,1.5,0,0,0,0,3Z"/></g><g class="cls-18"><path class="cls-12" d="M2109.17,13.7a1.5,1.5,0,0,0,0-3,1.5,1.5,0,0,0,0,3Z"/></g><g class="cls-18"><path class="cls-13" d="M2050.25,36.19a1.5,1.5,0,0,0,0-3,1.5,1.5,0,0,0,0,3Z"/></g><g class="cls-18"><path class="cls-14" d="M2055.13,39.44a1.5,1.5,0,0,0,0-3,1.5,1.5,0,0,0,0,3Z"/></g><g class="cls-18"><path class="cls-15" d="M2070.12,63.67a1.5,1.5,0,0,0,0-3,1.5,1.5,0,0,0,0,3Z"/></g><g class="cls-18"><path class="cls-16" d="M2075.06,60.25a1.5,1.5,0,0,0,0-3,1.5,1.5,0,0,0,0,3Z"/></g></g></g><g id="_32" data-name="32"><path class="cls-1" d="M2025.21,16c5.2,0,9.42,3.93,9.42,8.78,0,.17,0,.32,0,.49-.27,6.68-6.26,12.06-6.26,12.06L2016.43,48l-11.92-10.67s-6-5.39-6.26-12.08c0-.16,0-.31,0-.47,0-4.85,4.22-8.78,9.42-8.78a9.66,9.66,0,0,0,17.56,0Z"/><g id="Слой_79_копия18_" data-name="Слой 79 (копия18)"><line class="cls-3" x1="2016.47" y1="11.32" x2="2016.47" y2="8.93"/><line class="cls-3" x1="1996.13" y1="26.04" x2="1993.85" y2="25.29"/><line class="cls-3" x1="2004.75" y1="46.95" x2="2003.23" y2="49.05"/><line class="cls-3" x1="2030.39" y1="49.09" x2="2028.8" y2="46.91"/><line class="cls-3" x1="2039.02" y1="25.29" x2="2036.56" y2="26.1"/></g><g id="Слой_101_копия_8" data-name="Слой 101 копия 8"><g class="cls-5"><path class="cls-7" d="M2010.18,4.63a1.5,1.5,0,0,0,0-3,1.5,1.5,0,0,0,0,3Z"/></g><g class="cls-5"><path class="cls-8" d="M2005.31,9.56a1.5,1.5,0,0,0,0-3,1.5,1.5,0,0,0,0,3Z"/></g><g class="cls-5"><path class="cls-9" d="M2042.56,46.81a1.5,1.5,0,0,0,0-3,1.5,1.5,0,0,0,0,3Z"/></g><g class="cls-5"><path class="cls-10" d="M2043.38,52.75a1.5,1.5,0,0,0,0-3,1.5,1.5,0,0,0,0,3Z"/></g><g class="cls-5"><path class="cls-11" d="M2037.79,14.5a1.5,1.5,0,0,0,0-3,1.5,1.5,0,0,0,0,3Z"/></g><g class="cls-5"><path class="cls-12" d="M2043.38,15.2a1.5,1.5,0,0,0,0-3,1.5,1.5,0,0,0,0,3Z"/></g><g class="cls-5"><path class="cls-13" d="M1987.21,35.77a1.5,1.5,0,0,0,0-3,1.5,1.5,0,0,0,0,3Z"/></g><g class="cls-5"><path class="cls-14" d="M1991.13,39.44a1.5,1.5,0,0,0,0-3,1.5,1.5,0,0,0,0,3Z"/></g><g class="cls-5"><path class="cls-15" d="M2006.12,61.75a1.5,1.5,0,0,0,0-3,1.5,1.5,0,0,0,0,3Z"/></g><g class="cls-5"><path class="cls-16" d="M2011.06,60.25a1.5,1.5,0,0,0,0-3,1.5,1.5,0,0,0,0,3Z"/></g></g></g><g id="_31" data-name="31"><g class="cls-19"><path class="cls-20" d="M1952.43,10.2a21.8,21.8,0,1,1-21.8,21.8,21.83,21.83,0,0,1,21.8-21.8m0-.2a22,22,0,1,0,22,22,22,22,0,0,0-22-22Z"/></g><path class="cls-1" d="M1967.05,26.21c0,.13,0,.26,0,.39-.22,5.36-5,9.68-5,9.68l-9.56,8.55-9.56-8.55s-4.82-4.33-5-9.7c0-.12,0-.24,0-.37a7.31,7.31,0,0,1,7.55-7,7.75,7.75,0,0,0,14.09,0A7.31,7.31,0,0,1,1967.05,26.21Z"/><g id="Слой_79_копия17_" data-name="Слой 79 (копия17)"><line class="cls-3" x1="1952.46" y1="15.05" x2="1952.46" y2="13.15"/><line class="cls-3" x1="1936.27" y1="26.77" x2="1934.45" y2="26.17"/><line class="cls-3" x1="1942.53" y1="45.66" x2="1941.32" y2="47.33"/><line class="cls-3" x1="1963.54" y1="47.33" x2="1962.28" y2="45.6"/><line class="cls-3" x1="1970.41" y1="26.17" x2="1968.45" y2="26.81"/></g><g id="Слой_101_копия_7" data-name="Слой 101 копия 7"><g class="cls-6"><path class="cls-7" d="M1945.18,4.63a1.5,1.5,0,0,0,0-3,1.5,1.5,0,0,0,0,3Z"/></g><g class="cls-6"><path class="cls-8" d="M1940.31,10.62a1.5,1.5,0,0,0,0-3,1.5,1.5,0,0,0,0,3Z"/></g><g class="cls-6"><path class="cls-9" d="M1976.24,45.94a1.5,1.5,0,0,0,0-3,1.5,1.5,0,0,0,0,3Z"/></g><g class="cls-6"><path class="cls-10" d="M1978.38,52.75a1.5,1.5,0,0,0,0-3,1.5,1.5,0,0,0,0,3Z"/></g><g class="cls-6"><path class="cls-11" d="M1971.9,15.2a1.5,1.5,0,0,0,0-3,1.5,1.5,0,0,0,0,3Z"/></g><g class="cls-6"><path class="cls-12" d="M1978.38,15.2a1.5,1.5,0,0,0,0-3,1.5,1.5,0,0,0,0,3Z"/></g><g class="cls-6"><path class="cls-13" d="M1922.21,35.77a1.5,1.5,0,0,0,0-3,1.5,1.5,0,0,0,0,3Z"/></g><g class="cls-6"><path class="cls-14" d="M1927.28,38.55a1.5,1.5,0,0,0,0-3,1.5,1.5,0,0,0,0,3Z"/></g><g class="cls-6"><path class="cls-15" d="M1941.12,61.75a1.5,1.5,0,0,0,0-3,1.5,1.5,0,0,0,0,3Z"/></g><g class="cls-6"><path class="cls-16" d="M1946.52,59a1.5,1.5,0,0,0,0-3,1.5,1.5,0,0,0,0,3Z"/></g></g></g><g id="_30" data-name="30"><g class="cls-5"><path class="cls-20" d="M1888.46,10.5A21.5,21.5,0,1,1,1867,32a21.52,21.52,0,0,1,21.5-21.5m0-.5a22,22,0,1,0,22,22,22,22,0,0,0-22-22Z"/></g><path class="cls-1" d="M1899.29,27.7a2.81,2.81,0,0,1,0,.29c-.16,4-3.73,7.19-3.73,7.19l-7.09,6.35-7.1-6.35s-3.57-3.22-3.73-7.2V27.7a5.43,5.43,0,0,1,5.6-5.23,5.75,5.75,0,0,0,10.46,0A5.43,5.43,0,0,1,1899.29,27.7Z"/><g id="Слой_79_копия16_" data-name="Слой 79 (копия16)"><line class="cls-3" x1="1888.53" y1="18.08" x2="1888.53" y2="16.49"/><line class="cls-3" x1="1874.97" y1="27.9" x2="1873.45" y2="27.4"/><line class="cls-3" x1="1880.21" y1="43.72" x2="1879.2" y2="45.12"/><line class="cls-3" x1="1897.82" y1="45.12" x2="1896.76" y2="43.67"/><line class="cls-3" x1="1903.57" y1="27.4" x2="1901.93" y2="27.93"/></g><g id="Слой_101_копия_6" data-name="Слой 101 копия 6"><path class="cls-7" d="M1881.18,4.63a1.5,1.5,0,0,0,0-3,1.5,1.5,0,0,0,0,3Z"/><path class="cls-8" d="M1876.31,10.62a1.5,1.5,0,0,0,0-3,1.5,1.5,0,0,0,0,3Z"/><path class="cls-9" d="M1912.24,45.94a1.5,1.5,0,0,0,0-3,1.5,1.5,0,0,0,0,3Z"/><path class="cls-10" d="M1914.38,52.75a1.5,1.5,0,0,0,0-3,1.5,1.5,0,0,0,0,3Z"/><path class="cls-11" d="M1907.9,15.2a1.5,1.5,0,0,0,0-3,1.5,1.5,0,0,0,0,3Z"/><path class="cls-12" d="M1914.38,15.2a1.5,1.5,0,0,0,0-3,1.5,1.5,0,0,0,0,3Z"/><path class="cls-13" d="M1858.21,35.77a1.5,1.5,0,0,0,0-3,1.5,1.5,0,0,0,0,3Z"/><path class="cls-14" d="M1863.28,38.55a1.5,1.5,0,0,0,0-3,1.5,1.5,0,0,0,0,3Z"/><path class="cls-15" d="M1877.12,61.75a1.5,1.5,0,0,0,0-3,1.5,1.5,0,0,0,0,3Z"/><path class="cls-16" d="M1882.52,59a1.5,1.5,0,0,0,0-3,1.5,1.5,0,0,0,0,3Z"/></g></g><g id="_29" data-name="29"><g class="cls-6"><path class="cls-20" d="M1824.46,11a21,21,0,1,1-21,21,21,21,0,0,1,21-21m0-1a22,22,0,1,0,22,22,22,22,0,0,0-22-22Z"/></g><path class="cls-1" d="M1833.87,28.27v.25c-.14,3.45-3.24,6.24-3.24,6.24l-6.17,5.52-6.17-5.52s-3.11-2.79-3.24-6.25a2,2,0,0,1,0-.24,4.72,4.72,0,0,1,4.87-4.55,5,5,0,0,0,9.09,0A4.72,4.72,0,0,1,1833.87,28.27Z"/><g id="Слой_79_копия15_" data-name="Слой 79 (копия15)"><line class="cls-3" x1="1824.53" y1="20.1" x2="1824.53" y2="18.76"/><line class="cls-3" x1="1813.12" y1="28.36" x2="1811.84" y2="27.94"/><line class="cls-3" x1="1817.53" y1="41.67" x2="1816.68" y2="42.85"/><line class="cls-3" x1="1832.34" y1="42.85" x2="1831.45" y2="41.63"/><line class="cls-3" x1="1837.18" y1="27.94" x2="1835.8" y2="28.39"/></g><g id="Слой_101_копия_5" data-name="Слой 101 копия 5"><path class="cls-7" d="M1817.18,6.58a1.5,1.5,0,0,0,0-3,1.5,1.5,0,0,0,0,3Z"/><path class="cls-8" d="M1812.31,10.62a1.5,1.5,0,0,0,0-3,1.5,1.5,0,0,0,0,3Z"/><path class="cls-9" d="M1848.24,45.94a1.5,1.5,0,0,0,0-3,1.5,1.5,0,0,0,0,3Z"/><path class="cls-10" d="M1848.24,51.56a1.5,1.5,0,0,0,0-3,1.5,1.5,0,0,0,0,3Z"/><path class="cls-11" d="M1843.9,15.2a1.5,1.5,0,0,0,0-3,1.5,1.5,0,0,0,0,3Z"/><path class="cls-12" d="M1848.24,16.52a1.5,1.5,0,0,0,0-3,1.5,1.5,0,0,0,0,3Z"/><path class="cls-13" d="M1796.33,34.42a1.5,1.5,0,0,0,0-3,1.5,1.5,0,0,0,0,3Z"/><path class="cls-14" d="M1799.28,38.55a1.5,1.5,0,0,0,0-3,1.5,1.5,0,0,0,0,3Z"/><path class="cls-15" d="M1813.12,60.08a1.5,1.5,0,0,0,0-3,1.5,1.5,0,0,0,0,3Z"/><path class="cls-16" d="M1818.52,59a1.5,1.5,0,0,0,0-3,1.5,1.5,0,0,0,0,3Z"/></g></g><g id="_28" data-name="28"><path class="cls-20" d="M1760.46,11.5A20.5,20.5,0,1,1,1740,32a20.53,20.53,0,0,1,20.5-20.5m0-1.5a22,22,0,1,0,22,22,22,22,0,0,0-22-22Z"/><path class="cls-1" d="M1767.92,29c0,.07,0,.13,0,.2-.11,2.74-2.57,4.95-2.57,4.95l-4.88,4.37-4.89-4.37s-2.46-2.22-2.57-5c0-.06,0-.12,0-.19a3.74,3.74,0,0,1,3.86-3.6,4,4,0,0,0,7.21,0A3.74,3.74,0,0,1,1767.92,29Z"/><g id="Слой_79_копия14_" data-name="Слой 79 (копия14)"><line class="cls-3" x1="1760.48" y1="21.63" x2="1760.48" y2="18.5"/><line class="cls-3" x1="1750.76" y1="28.66" x2="1747.79" y2="27.68"/><line class="cls-3" x1="1754.52" y1="39.97" x2="1752.63" y2="42.59"/><line class="cls-3" x1="1768.29" y1="42.59" x2="1766.35" y2="39.93"/><line class="cls-3" x1="1773.13" y1="27.68" x2="1770.05" y2="28.68"/></g><g id="Слой_101_копия_4" data-name="Слой 101 копия 4"><path class="cls-7" d="M1753.18,8.69a1.5,1.5,0,0,0,0-3,1.5,1.5,0,0,0,0,3Z"/><path class="cls-8" d="M1748.31,10.62a1.5,1.5,0,0,0,0-3,1.5,1.5,0,0,0,0,3Z"/><path class="cls-9" d="M1784.24,45.94a1.5,1.5,0,0,0,0-3,1.5,1.5,0,0,0,0,3Z"/><path class="cls-10" d="M1781.89,50a1.5,1.5,0,0,0,0-3,1.5,1.5,0,0,0,0,3Z"/><path class="cls-11" d="M1779.9,15.2a1.5,1.5,0,0,0,0-3,1.5,1.5,0,0,0,0,3Z"/><path class="cls-12" d="M1782.83,18.44a1.5,1.5,0,0,0,0-3,1.5,1.5,0,0,0,0,3Z"/><path class="cls-13" d="M1734.83,34.69a1.5,1.5,0,0,0,0-3,1.5,1.5,0,0,0,0,3Z"/><path class="cls-14" d="M1735.28,38.55a1.5,1.5,0,0,0,0-3,1.5,1.5,0,0,0,0,3Z"/><path class="cls-15" d="M1750.54,57.73a1.5,1.5,0,0,0,0-3,1.5,1.5,0,0,0,0,3Z"/><path class="cls-16" d="M1754.52,59a1.5,1.5,0,0,0,0-3,1.5,1.5,0,0,0,0,3Z"/></g></g><g id="_27" data-name="27"><g id="Слой_53" data-name="Слой 53"><path class="cls-20" d="M1696.46,12.2a19.8,19.8,0,1,1-19.8,19.8,19.83,19.83,0,0,1,19.8-19.8m0-2.2a22,22,0,1,0,22,22,22,22,0,0,0-22-22Z"/></g><path class="cls-1" d="M1701.83,29.87V30a5.89,5.89,0,0,1-1.85,3.57l-3.52,3.15-3.53-3.15a5.93,5.93,0,0,1-1.85-3.58v-.13a2.69,2.69,0,0,1,2.78-2.6,2.85,2.85,0,0,0,5.19,0A2.69,2.69,0,0,1,1701.83,29.87Z"/><g id="Слой_79_копия13_" data-name="Слой 79 (копия13)"><line class="cls-3" x1="1696.5" y1="24.14" x2="1696.5" y2="18.4"/><line class="cls-3" x1="1689.29" y1="29.38" x2="1683.81" y2="27.58"/><line class="cls-3" x1="1692.08" y1="37.75" x2="1688.65" y2="42.49"/><line class="cls-3" x1="1704.31" y1="42.49" x2="1700.83" y2="37.72"/><line class="cls-3" x1="1709.15" y1="27.58" x2="1703.58" y2="29.4"/></g><g id="Слой_101_копия_3" data-name="Слой 101 копия 3"><path class="cls-7" d="M1693.68,9.65a1.5,1.5,0,0,0,0-3,1.5,1.5,0,0,0,0,3Z"/><path class="cls-8" d="M1688.92,10.63a1.5,1.5,0,0,0,0-3,1.5,1.5,0,0,0,0,3Z"/><path class="cls-9" d="M1716.07,48.69a1.5,1.5,0,0,0,0-3,1.5,1.5,0,0,0,0,3Z"/><path class="cls-10" d="M1713.27,52a1.5,1.5,0,0,0,0-3,1.5,1.5,0,0,0,0,3Z"/><path class="cls-11" d="M1717.05,19.91a1.5,1.5,0,0,0,0-3,1.5,1.5,0,0,0,0,3Z"/><path class="cls-12" d="M1719.2,23.33a1.5,1.5,0,0,0,0-3,1.5,1.5,0,0,0,0,3Z"/><path class="cls-13" d="M1672.73,30.44a1.5,1.5,0,0,0,0-3,1.5,1.5,0,0,0,0,3Z"/><path class="cls-14" d="M1672.52,34.05a1.5,1.5,0,0,0,0-3,1.5,1.5,0,0,0,0,3Z"/><path class="cls-15" d="M1683.37,54a1.5,1.5,0,0,0,0-3,1.5,1.5,0,0,0,0,3Z"/><path class="cls-16" d="M1686.8,55.87a1.5,1.5,0,0,0,0-3,1.5,1.5,0,0,0,0,3Z"/></g></g><g id="_26" data-name="26"><g id="Слой_52" data-name="Слой 52"><path class="cls-20" d="M1632.46,13a19,19,0,1,1-19,19,19,19,0,0,1,19-19m0-3a22,22,0,1,0,22,22,22,22,0,0,0-22-22Z"/></g><path class="cls-1" d="M1636.39,30.44v.1a4.3,4.3,0,0,1-1.36,2.61l-2.58,2.31-2.57-2.31a4.3,4.3,0,0,1-1.36-2.61v-.1a2,2,0,0,1,2-1.9,2,2,0,0,1,1.89,1.22,2.06,2.06,0,0,1,1.9-1.22A2,2,0,0,1,1636.39,30.44Z"/><g id="Слой_79_копия12_" data-name="Слой 79 (копия12)"><line class="cls-3" x1="1632.52" y1="25.64" x2="1632.52" y2="18.5"/><line class="cls-3" x1="1626.63" y1="29.91" x2="1619.83" y2="27.68"/><line class="cls-3" x1="1628.92" y1="36.73" x2="1624.67" y2="42.59"/><line class="cls-3" x1="1640.33" y1="42.59" x2="1636.04" y2="36.7"/><line class="cls-3" x1="1645.17" y1="27.68" x2="1638.29" y2="29.93"/></g><g id="Слой_101_копия_2" data-name="Слой 101 копия 2"><path class="cls-7" d="M1633.61,9.51a1.5,1.5,0,0,0,0-3,1.5,1.5,0,0,0,0,3Z"/><path class="cls-8" d="M1628.76,9.65a1.5,1.5,0,0,0,0-3,1.5,1.5,0,0,0,0,3Z"/><path class="cls-9" d="M1648.88,51.84a1.5,1.5,0,0,0,0-3,1.5,1.5,0,0,0,0,3Z"/><path class="cls-10" d="M1645.55,54.61a1.5,1.5,0,0,0,0-3,1.5,1.5,0,0,0,0,3Z"/><path class="cls-11" d="M1654.85,23.67a1.5,1.5,0,0,0,0-3,1.5,1.5,0,0,0,0,3Z"/><path class="cls-12" d="M1656.38,27.41a1.5,1.5,0,0,0,0-3,1.5,1.5,0,0,0,0,3Z"/><path class="cls-13" d="M1609.37,26.35a1.5,1.5,0,0,0,0-3,1.5,1.5,0,0,0,0,3Z"/><path class="cls-14" d="M1608.54,29.87a1.5,1.5,0,0,0,0-3,1.5,1.5,0,0,0,0,3Z"/><path class="cls-15" d="M1615.76,51.42a1.5,1.5,0,0,0,0-3,1.5,1.5,0,0,0,0,3Z"/><path class="cls-16" d="M1618.81,53.83a1.5,1.5,0,0,0,0-3,1.5,1.5,0,0,0,0,3Z"/></g></g><g id="_25" data-name="25"><g id="Слой_51" data-name="Слой 51"><path class="cls-20" d="M1568.46,14a18,18,0,1,1-18,18,18,18,0,0,1,18-18m0-4a22,22,0,1,0,22,22,22,22,0,0,0-22-22Z"/></g><path class="cls-1" d="M1570.56,31.16v.06a2.33,2.33,0,0,1-.72,1.4l-1.38,1.23-1.39-1.23a2.33,2.33,0,0,1-.72-1.4v-.06a1.05,1.05,0,0,1,1.09-1,1.1,1.1,0,0,1,1,.65,1.08,1.08,0,0,1,1-.65A1.05,1.05,0,0,1,1570.56,31.16Z"/><g id="Слой_79_копия11_" data-name="Слой 79 (копия11)"><line class="cls-3" x1="1568.48" y1="26.89" x2="1568.48" y2="18.63"/><line class="cls-3" x1="1563.64" y1="30.39" x2="1555.79" y2="27.82"/><line class="cls-3" x1="1565.46" y1="36.07" x2="1560.62" y2="42.73"/><line class="cls-3" x1="1576.29" y1="42.73" x2="1571.41" y2="36.03"/><line class="cls-3" x1="1581.12" y1="27.82" x2="1573.23" y2="30.39"/></g><g id="Слой_101" data-name="Слой 101"><path class="cls-7" d="M1569.5,11.75a1.5,1.5,0,0,0,0-3,1.5,1.5,0,0,0,0,3Z"/><path class="cls-8" d="M1565.13,11.88a1.5,1.5,0,0,0,0-3,1.5,1.5,0,0,0,0,3Z"/><path class="cls-9" d="M1583.25,49.88a1.5,1.5,0,0,0,0-3,1.5,1.5,0,0,0,0,3Z"/><path class="cls-10" d="M1580.25,52.38a1.5,1.5,0,0,0,0-3,1.5,1.5,0,0,0,0,3Z"/><path class="cls-11" d="M1588.63,24.5a1.5,1.5,0,0,0,0-3,1.5,1.5,0,0,0,0,3Z"/><path class="cls-12" d="M1590,27.88a1.5,1.5,0,0,0,0-3,1.5,1.5,0,0,0,0,3Z"/><path class="cls-13" d="M1547.67,26.92a1.5,1.5,0,0,0,0-3,1.5,1.5,0,0,0,0,3Z"/><path class="cls-14" d="M1546.92,30.08a1.5,1.5,0,0,0,0-3,1.5,1.5,0,0,0,0,3Z"/><path class="cls-15" d="M1553.42,49.5a1.5,1.5,0,0,0,0-3,1.5,1.5,0,0,0,0,3Z"/><path class="cls-16" d="M1556.17,51.67a1.5,1.5,0,0,0,0-3,1.5,1.5,0,0,0,0,3Z"/></g></g><g id="_24" data-name="24"><path class="cls-20" d="M1504.46,16a16,16,0,1,1-16,16,16,16,0,0,1,16-16m0-6a22,22,0,1,0,22,22,22,22,0,0,0-22-22Z"/><g id="Слой_79_копия10_" data-name="Слой 79 (копия10)"><line class="cls-3" x1="1504.48" y1="26.4" x2="1504.48" y2="18.15"/><line class="cls-3" x1="1499.64" y1="29.91" x2="1491.79" y2="27.34"/><line class="cls-3" x1="1501.46" y1="35.59" x2="1496.62" y2="42.25"/><line class="cls-3" x1="1512.29" y1="42.25" x2="1507.41" y2="35.54"/><line class="cls-3" x1="1517.13" y1="27.34" x2="1509.23" y2="29.91"/></g><g id="Слой_101_копия_" data-name="Слой 101 (копия)"><g class="cls-21"><path class="cls-7" d="M1505.52,11.87a1.5,1.5,0,0,0,0-3,1.5,1.5,0,0,0,0,3Z"/></g><g class="cls-21"><path class="cls-8" d="M1501.14,12a1.5,1.5,0,0,0,0-3,1.5,1.5,0,0,0,0,3Z"/></g><g class="cls-21"><path class="cls-9" d="M1519.27,50a1.5,1.5,0,0,0,0-3,1.5,1.5,0,0,0,0,3Z"/></g><g class="cls-21"><path class="cls-10" d="M1516.27,52.5a1.5,1.5,0,0,0,0-3,1.5,1.5,0,0,0,0,3Z"/></g><g class="cls-21"><path class="cls-11" d="M1524.64,24.62a1.5,1.5,0,0,0,0-3,1.5,1.5,0,0,0,0,3Z"/></g><g class="cls-21"><path class="cls-12" d="M1526,28a1.5,1.5,0,0,0,0-3,1.5,1.5,0,0,0,0,3Z"/></g><g class="cls-21"><path class="cls-13" d="M1483.69,27a1.5,1.5,0,0,0,0-3,1.5,1.5,0,0,0,0,3Z"/></g><g class="cls-21"><path class="cls-14" d="M1482.94,30.2a1.5,1.5,0,0,0,0-3,1.5,1.5,0,0,0,0,3Z"/></g><g class="cls-21"><path class="cls-15" d="M1489.44,49.62a1.5,1.5,0,0,0,0-3,1.5,1.5,0,0,0,0,3Z"/></g><g class="cls-21"><path class="cls-16" d="M1492.19,51.79a1.5,1.5,0,0,0,0-3,1.5,1.5,0,0,0,0,3Z"/></g></g></g><g id="_23" data-name="23"><path class="cls-20" d="M1440.46,18a14,14,0,1,1-14,14,14,14,0,0,1,14-14m0-8a22,22,0,1,0,22,22,22,22,0,0,0-22-22Z"/><g id="Слой_79_копия9_" data-name="Слой 79 (копия9)"><line class="cls-3" x1="1440.48" y1="26.69" x2="1440.48" y2="18.44"/><line class="cls-3" x1="1435.64" y1="30.2" x2="1427.79" y2="27.62"/><line class="cls-3" x1="1437.46" y1="35.88" x2="1432.62" y2="42.53"/><line class="cls-3" x1="1448.29" y1="42.53" x2="1443.41" y2="35.83"/><line class="cls-3" x1="1453.13" y1="27.62" x2="1445.23" y2="30.2"/></g><g id="Слой_101_копия2_" data-name="Слой 101 (копия2)"><g class="cls-18"><path class="cls-7" d="M1441.52,11.87a1.5,1.5,0,0,0,0-3,1.5,1.5,0,0,0,0,3Z"/></g><g class="cls-18"><path class="cls-8" d="M1437.14,12a1.5,1.5,0,0,0,0-3,1.5,1.5,0,0,0,0,3Z"/></g><g class="cls-18"><path class="cls-9" d="M1455.27,50a1.5,1.5,0,0,0,0-3,1.5,1.5,0,0,0,0,3Z"/></g><g class="cls-18"><path class="cls-10" d="M1452.27,52.5a1.5,1.5,0,0,0,0-3,1.5,1.5,0,0,0,0,3Z"/></g><g class="cls-18"><path class="cls-11" d="M1460.64,24.62a1.5,1.5,0,0,0,0-3,1.5,1.5,0,0,0,0,3Z"/></g><g class="cls-18"><path class="cls-12" d="M1462,28a1.5,1.5,0,0,0,0-3,1.5,1.5,0,0,0,0,3Z"/></g><g class="cls-18"><path class="cls-13" d="M1419.69,27a1.5,1.5,0,0,0,0-3,1.5,1.5,0,0,0,0,3Z"/></g><g class="cls-18"><path class="cls-14" d="M1418.94,30.2a1.5,1.5,0,0,0,0-3,1.5,1.5,0,0,0,0,3Z"/></g><g class="cls-18"><path class="cls-15" d="M1425.44,49.62a1.5,1.5,0,0,0,0-3,1.5,1.5,0,0,0,0,3Z"/></g><g class="cls-18"><path class="cls-16" d="M1428.19,51.79a1.5,1.5,0,0,0,0-3,1.5,1.5,0,0,0,0,3Z"/></g></g></g><g id="_22" data-name="22"><path class="cls-20" d="M1376.46,21.17A10.83,10.83,0,1,1,1365.62,32a10.84,10.84,0,0,1,10.84-10.83m0-10A20.83,20.83,0,1,0,1397.29,32a20.83,20.83,0,0,0-20.83-20.83Z"/><g id="Слой_79_копия8_" data-name="Слой 79 (копия8)"><line class="cls-3" x1="1376.48" y1="26.71" x2="1376.48" y2="18.45"/><line class="cls-3" x1="1371.64" y1="30.21" x2="1363.79" y2="27.64"/><line class="cls-3" x1="1373.46" y1="35.89" x2="1368.62" y2="42.55"/><line class="cls-3" x1="1384.29" y1="42.55" x2="1379.41" y2="35.85"/><line class="cls-3" x1="1389.13" y1="27.64" x2="1381.23" y2="30.21"/></g><g id="Слой_101_копия3_" data-name="Слой 101 (копия3)"><g class="cls-17"><path class="cls-7" d="M1377.45,13.17a1.5,1.5,0,0,0,0-3,1.5,1.5,0,0,0,0,3Z"/></g><g class="cls-17"><path class="cls-8" d="M1373.36,13.28a1.5,1.5,0,0,0,0-3,1.5,1.5,0,0,0,0,3Z"/></g><g class="cls-17"><path class="cls-9" d="M1390.33,48.86a1.5,1.5,0,0,0,0-3,1.5,1.5,0,0,0,0,3Z"/></g><g class="cls-17"><path class="cls-10" d="M1387.52,51.2a1.5,1.5,0,0,0,0-3,1.5,1.5,0,0,0,0,3Z"/></g><g class="cls-17"><path class="cls-11" d="M1395.36,25.1a1.5,1.5,0,0,0,0-3,1.5,1.5,0,0,0,0,3Z"/></g><g class="cls-17"><path class="cls-12" d="M1396.64,28.26a1.5,1.5,0,0,0,0-3,1.5,1.5,0,0,0,0,3Z"/></g><g class="cls-17"><path class="cls-13" d="M1357,27.37a1.5,1.5,0,0,0,0-3,1.5,1.5,0,0,0,0,3Z"/></g><g class="cls-17"><path class="cls-14" d="M1356.31,30.33a1.5,1.5,0,0,0,0-3,1.5,1.5,0,0,0,0,3Z"/></g><g class="cls-17"><path class="cls-15" d="M1362.4,48.51a1.5,1.5,0,0,0,0-3,1.5,1.5,0,0,0,0,3Z"/></g><g class="cls-17"><path class="cls-16" d="M1365,50.54a1.5,1.5,0,0,0,0-3,1.5,1.5,0,0,0,0,3Z"/></g></g></g><g id="_21" data-name="21"><path class="cls-20" d="M1312.46,27.33a4.67,4.67,0,1,1-4.67,4.67,4.68,4.68,0,0,1,4.67-4.67m0-15A19.67,19.67,0,1,0,1332.13,32a19.67,19.67,0,0,0-19.67-19.67Z"/><g id="Слой_79_копия6_" data-name="Слой 79 (копия6)"><line class="cls-3" x1="1312.5" y1="26.98" x2="1312.5" y2="18.73"/><line class="cls-3" x1="1307.66" y1="30.49" x2="1299.81" y2="27.91"/><line class="cls-3" x1="1309.48" y1="36.17" x2="1304.65" y2="42.82"/><line class="cls-3" x1="1320.31" y1="42.82" x2="1315.43" y2="36.12"/><line class="cls-3" x1="1325.15" y1="27.91" x2="1317.25" y2="30.49"/></g></g><g id="_20_отверстие" data-name="20 отверстие"><path class="cls-20" d="M1248.46,30.64A1.36,1.36,0,1,1,1247.1,32a1.36,1.36,0,0,1,1.36-1.36m0-17A18.36,18.36,0,1,0,1266.81,32a18.36,18.36,0,0,0-18.35-18.36Z"/><g id="Слой_79_копия5_" data-name="Слой 79 (копия5)"><line class="cls-3" x1="1248.48" y1="26.99" x2="1248.48" y2="18.74"/><line class="cls-3" x1="1243.64" y1="30.5" x2="1235.79" y2="27.93"/><line class="cls-3" x1="1245.46" y1="36.18" x2="1240.62" y2="42.84"/><line class="cls-3" x1="1256.29" y1="42.84" x2="1251.41" y2="36.14"/><line class="cls-3" x1="1261.13" y1="27.93" x2="1253.23" y2="30.5"/></g></g><g id="_19" data-name="19"><circle class="cls-20" cx="1184.46" cy="32" r="17.13"/><g id="Слой_79_копия4_" data-name="Слой 79 (копия4)"><line class="cls-3" x1="1184.47" y1="27.61" x2="1184.47" y2="20.58"/><line class="cls-3" x1="1180.36" y1="30.59" x2="1173.68" y2="28.4"/><line class="cls-3" x1="1181.91" y1="35.42" x2="1177.79" y2="41.08"/><line class="cls-3" x1="1191.12" y1="41.08" x2="1186.97" y2="35.38"/><line class="cls-3" x1="1195.23" y1="28.4" x2="1188.51" y2="30.59"/></g></g><g id="_18" data-name="18"><circle class="cls-20" cx="1120.46" cy="32" r="15.54"/><g id="Слой_79_копия3_" data-name="Слой 79 (копия3)"><line class="cls-3" x1="1120.48" y1="28.22" x2="1120.48" y2="22.19"/><line class="cls-3" x1="1116.95" y1="30.79" x2="1111.2" y2="28.91"/><line class="cls-3" x1="1118.28" y1="34.94" x2="1114.74" y2="39.81"/><line class="cls-3" x1="1126.2" y1="39.81" x2="1122.63" y2="34.91"/><line class="cls-3" x1="1129.74" y1="28.91" x2="1123.96" y2="30.79"/></g></g><g id="_17" data-name="17"><circle class="cls-20" cx="1056.46" cy="32" r="14.19"/><g id="Слой_79_копия2_" data-name="Слой 79 (копия2)"><line class="cls-3" x1="1056.47" y1="28.81" x2="1056.47" y2="24.04"/><line class="cls-3" x1="1053.67" y1="30.83" x2="1049.14" y2="29.35"/><line class="cls-3" x1="1054.73" y1="34.11" x2="1051.93" y2="37.96"/><line class="cls-3" x1="1060.98" y1="37.96" x2="1058.16" y2="34.09"/><line class="cls-3" x1="1063.77" y1="29.35" x2="1059.21" y2="30.83"/></g></g><g id="_16" data-name="16"><circle class="cls-20" cx="992.46" cy="32" r="10.86"/><g id="Слой_79_копия_" data-name="Слой 79 (копия)"><line class="cls-3" x1="992.48" y1="29.45" x2="992.48" y2="25.54"/><line class="cls-3" x1="990.18" y1="31.11" x2="986.46" y2="29.89"/><line class="cls-3" x1="991.05" y1="33.8" x2="988.75" y2="36.96"/><line class="cls-3" x1="996.18" y1="36.96" x2="993.86" y2="33.78"/><line class="cls-3" x1="998.47" y1="29.89" x2="994.73" y2="31.11"/></g></g><g id="_15" data-name="15"><path class="cls-20" d="M928.46,26.69A5.31,5.31,0,1,0,933.77,32a5.32,5.32,0,0,0-5.31-5.31Z"/><g id="Слой_79" data-name="Слой 79"><line class="cls-3" x1="928.46" y1="30.86" x2="928.46" y2="29"/><line class="cls-3" x1="927.37" y1="31.65" x2="925.6" y2="31.07"/><line class="cls-3" x1="927.78" y1="32.93" x2="926.69" y2="34.43"/><line class="cls-3" x1="930.22" y1="34.43" x2="929.12" y2="32.92"/><line class="cls-3" x1="931.31" y1="31.07" x2="929.53" y2="31.65"/></g></g><g id="_14" data-name="14"><circle class="cls-22" cx="864.46" cy="32" r="3.9"/><g id="Слой_45" data-name="Слой 45"><line class="cls-23" x1="864.46" y1="32.58" x2="864.46" y2="33.73"/><line class="cls-23" x1="865" y1="32.22" x2="866.09" y2="32.58"/><line class="cls-24" x1="865" y1="32.22" x2="866.09" y2="32.58"/><line class="cls-23" x1="864.87" y1="31.59" x2="865.54" y2="30.66"/><line class="cls-24" x1="864.87" y1="31.59" x2="865.54" y2="30.66"/><line class="cls-23" x1="864.07" y1="31.55" x2="863.39" y2="30.61"/><line class="cls-24" x1="864.07" y1="31.55" x2="863.39" y2="30.61"/><line class="cls-23" x1="863.92" y1="32.22" x2="862.82" y2="32.58"/><line class="cls-24" x1="863.92" y1="32.22" x2="862.82" y2="32.58"/></g></g><g id="_13" data-name="13"><circle class="cls-1" cx="800.46" cy="32" r="4.44"/></g><g id="_12" data-name="12"><path class="cls-1" d="M736.57,27.47a3.74,3.74,0,0,1,3.69-3.29,3.58,3.58,0,0,1,3.6,3.54c.22,2.56-2.24,6-2.24,6l-4.94,6.13-4.88-6s-2.53-3.35-2.36-5.91a3.57,3.57,0,0,1,7.13-.4Zm.09,9.82L741,31.84A6.18,6.18,0,0,0,742,27.67l0-.14a2.13,2.13,0,0,0-.07-.27h0A1.92,1.92,0,0,0,740.12,26a2.22,2.22,0,0,0-2,1.48c-.22.84-.43,2-.56,2.79h0c-.09.56-.14.95-.14.95l-1.62,0a15.86,15.86,0,0,0-.77-3.79h0a1.92,1.92,0,0,0-3.66-.05h0a1.27,1.27,0,0,0-.06.28l0,.14a6.18,6.18,0,0,0,1.16,4.15Z"/><path class="cls-1" d="M742,27.67A6.18,6.18,0,0,1,741,31.84l-4.29,5.45-4.23-5.36a6.18,6.18,0,0,1-1.16-4.15l0-.14.06-.28h0a1.92,1.92,0,0,1,3.66.05h0a15.86,15.86,0,0,1,.77,3.79l1.62,0s.05-.39.14-.95h0c.13-.81.34-1.95.56-2.79a2.22,2.22,0,0,1,2-1.48,1.92,1.92,0,0,1,1.82,1.29h0c0,.09,0,.19.08.28Z"/></g><g id="_11" data-name="11"><path class="cls-1" d="M672,24.81A5.51,5.51,0,0,1,677.4,20a5.28,5.28,0,0,1,5.33,5.23c.33,3.78-3.31,8.81-3.31,8.81l-7.3,9-7.21-8.9s-3.74-5-3.49-8.75A5.28,5.28,0,0,1,672,24.81Zm.13,14.5,6.34-8s2.17-3,1.61-6.15l0-.22a2.6,2.6,0,0,0-.1-.4h0a2.82,2.82,0,0,0-2.7-1.9,3.23,3.23,0,0,0-3,2.18c-.33,1.24-.64,2.93-.83,4.12h0c-.14.83-.22,1.41-.22,1.41l-2.39,0a23.17,23.17,0,0,0-1.14-5.6h0a2.84,2.84,0,0,0-5.41-.07h0a1.75,1.75,0,0,0-.09.41l0,.21c-.51,3.2,1.72,6.13,1.72,6.13Z"/><path class="cls-1" d="M680,25.11c.56,3.18-1.61,6.15-1.61,6.15l-6.34,8.05-6.25-7.91s-2.23-2.93-1.72-6.13l0-.21.09-.42h0a2.84,2.84,0,0,1,5.41.07h0a23.17,23.17,0,0,1,1.14,5.6l2.39,0s.08-.58.22-1.41h0c.19-1.19.5-2.88.83-4.12a3.23,3.23,0,0,1,3-2.18,2.82,2.82,0,0,1,2.7,1.9h0c0,.13.08.27.11.4Z"/></g><g id="_10" data-name="10"><path class="cls-1" d="M609.06,25.26a6.19,6.19,0,0,1,7.44-3.43,5.93,5.93,0,0,1,4,7.36c-.89,4.17-6.45,8.37-6.45,8.37l-10.81,7.33L598.43,33s-2.38-6.55-.87-10.53a5.93,5.93,0,0,1,11.5,2.83Zm-8.23-2.7,0,0a1.58,1.58,0,0,0-.19.34.83.83,0,0,0-.07.13c-1.66,3.29-.21,7.25-.21,7.25l4.12,10.55,9.44-6.56s3.3-2.47,3.75-6.08a2,2,0,0,0,0-.24,2.42,2.42,0,0,0,0-.47h0a3.18,3.18,0,0,0-2.27-2.93A3.64,3.64,0,0,0,611.53,26c-1.3,2.08-2.95,5.6-2.95,5.6L606,30.79a26.33,26.33,0,0,0,.61-6.39,3.18,3.18,0,0,0-5.78-1.85Z"/><path class="cls-1" d="M600.54,23.07a.83.83,0,0,1,.07-.13,2.27,2.27,0,0,1,.19-.34l0,0h0a3.18,3.18,0,0,1,5.78,1.85,26.33,26.33,0,0,1-.61,6.39l2.57.76s1.65-3.52,2.95-5.6a3.64,3.64,0,0,1,3.89-1.37,3.18,3.18,0,0,1,2.27,2.93h0c0,.16,0,.32,0,.47a2,2,0,0,1,0,.24c-.45,3.61-3.75,6.08-3.75,6.08l-9.44,6.56-4.12-10.55S598.88,26.36,600.54,23.07Z"/></g><g id="_9" data-name="9"><path class="cls-1" d="M536.57,20.68s0,0,0,0a2.08,2.08,0,0,0-.29.36.41.41,0,0,0-.1.13c-2.6,3.47-1.72,8.34-1.72,8.34l2.6,13,12.26-5.66s4.32-2.18,5.57-6.27a2,2,0,0,0,.09-.26,2.62,2.62,0,0,0,.12-.54h0A3.72,3.72,0,0,0,553,26a4.28,4.28,0,0,0-4.78.78c-1.93,2.14-4.55,5.88-4.55,5.88l-2.81-1.4a31.56,31.56,0,0,0,2-7.27,3.74,3.74,0,0,0-6.31-3.32Zm9,4.81a7.26,7.26,0,0,1,9.3-2.46A7,7,0,0,1,558,32.36c-1.88,4.64-9.17,8.37-9.17,8.37l-14,6.26-3.14-14.77s-1.42-8.06,1.14-12.36a7,7,0,0,1,12.72,5.63Z"/><path class="cls-25" d="M544.81,31.14h0"/></g><g id="_8" data-name="8"><path class="cls-1" d="M492.55,31.34a3.66,3.66,0,0,0-.05-1.09,4.34,4.34,0,0,0-5-3.52,4.23,4.23,0,0,0-1.53.58c-1.68.86-5.08,5.4-5.08,5.4l-2.45-1.91s3.09-3.22,3.42-6.31a5.07,5.07,0,0,0-.07-.86,4.26,4.26,0,0,0-4.86-3.57,3.29,3.29,0,0,0-1.71.75,12.66,12.66,0,0,0-4,8.53l-3.44.26a16.45,16.45,0,0,1,5.85-11.79,6.52,6.52,0,0,1,3.16-1.54,6.65,6.65,0,0,1,7.63,5.52,6.82,6.82,0,0,1-.32,3.6,6.72,6.72,0,0,1,3.82-2.13,6.84,6.84,0,0,1,7.87,5.62,6.35,6.35,0,0,1,.1,1.5c0,.19,0,.38,0,.58-.69,8.52-8,12.72-10.74,13.44L484.81,41a12.43,12.43,0,0,0,5.64-4.13h0a11.23,11.23,0,0,0,2.07-5.23c0-.05,0-.09,0-.15A.49.49,0,0,0,492.55,31.34Z"/><polygon class="cls-1" points="484.81 40.97 485.12 44.4 467.48 47.55 467.79 29.6 471.24 29.34 470.81 43.51 484.81 40.97"/></g><g id="_7" data-name="7"><path class="cls-1" d="M419.72,43.27,419.41,47l-19.24,0,3.68-18.92,3.69.36-3.09,14.91Z"/><path class="cls-1" d="M431.66,28.12a8.66,8.66,0,0,1,1.74,3.31,8.31,8.31,0,0,1,.1,3.82,11.72,11.72,0,0,1-1.76,4.1,19,19,0,0,1-3.81,4.16c-.91.76-1.74,1.41-2.51,2s-1.5,1-2.2,1.47l-2.28-2.71c.83-.47,1.67-1,2.53-1.61s1.7-1.25,2.53-2a16,16,0,0,0,2.66-2.74,7.26,7.26,0,0,0,1.23-2.53,4.44,4.44,0,0,0-.05-2.32,6,6,0,0,0-1.2-2.13,4.06,4.06,0,0,0-1.79-1.28,4.49,4.49,0,0,0-2.14-.18,7.57,7.57,0,0,0-2.4.81,14.11,14.11,0,0,0-2.5,1.69l-2.59,2.17-2.08-2.48,2.62-2.2a8,8,0,0,0,1.64-1.83,5.55,5.55,0,0,0,.8-2,4.43,4.43,0,0,0-.13-2A5.31,5.31,0,0,0,419,21.71,4.06,4.06,0,0,0,415.65,20a7.05,7.05,0,0,0-4,1.91,16.75,16.75,0,0,0-2.17,2.2,29.49,29.49,0,0,0-2,2.86l-2.21-2.63c.28-.47.59-.95.94-1.43s.73-.95,1.11-1.4.78-.88,1.18-1.29.81-.78,1.22-1.12a14.9,14.9,0,0,1,3.5-2.27,8.58,8.58,0,0,1,3.24-.81,6.11,6.11,0,0,1,2.87.61,7.31,7.31,0,0,1,2.44,1.95,6.8,6.8,0,0,1,1.74,4.09,9,9,0,0,1-1,4.4,7.74,7.74,0,0,1,2.21-.91,8.06,8.06,0,0,1,2.44-.23,6.84,6.84,0,0,1,2.4.6A6,6,0,0,1,431.66,28.12Z"/></g><g id="_6" data-name="6"><path class="cls-1" d="M353.58,43.57l-.28,3.36-19.09,0,3.36-18.79,3.38.33-2.82,15.12Z"/><path class="cls-1" d="M366.78,27.67a8.12,8.12,0,0,1,1.68,3.19,8,8,0,0,1,.1,3.68,11.41,11.41,0,0,1-1.69,4,18.71,18.71,0,0,1-3.68,4c-.86.72-1.67,1.35-2.4,1.87s-1.45,1-2.13,1.41l-2.18-2.6c.79-.46,1.6-1,2.42-1.56s1.64-1.2,2.44-1.87a15.18,15.18,0,0,0,2.56-2.64,7.12,7.12,0,0,0,1.19-2.44,4.2,4.2,0,0,0-.06-2.23,5.79,5.79,0,0,0-1.15-2,4,4,0,0,0-1.72-1.24A4.42,4.42,0,0,0,360.1,29a7.51,7.51,0,0,0-2.31.78,13.59,13.59,0,0,0-2.4,1.63l-2.49,2.09-2-2.39L353.42,29A7.86,7.86,0,0,0,355,27.21a5.24,5.24,0,0,0,.76-1.91,4.22,4.22,0,0,0-.12-1.93,5.22,5.22,0,0,0-1-1.87,3.89,3.89,0,0,0-3.22-1.66,6.72,6.72,0,0,0-3.81,1.83,16.78,16.78,0,0,0-2.09,2.12,26,26,0,0,0-2,2.76L341.39,24c.27-.45.57-.91.91-1.38s.69-.91,1.06-1.34.75-.85,1.14-1.24.78-.76,1.17-1.09A14.4,14.4,0,0,1,349,16.78a8.23,8.23,0,0,1,3.11-.78,5.93,5.93,0,0,1,2.77.59,7.06,7.06,0,0,1,2.34,1.87,6.61,6.61,0,0,1,1.68,3.95,8.6,8.6,0,0,1-.94,4.23,7.9,7.9,0,0,1,2.13-.88,8.12,8.12,0,0,1,2.35-.22,6.57,6.57,0,0,1,2.31.59A5.5,5.5,0,0,1,366.78,27.67Z"/></g><g id="_5" data-name="5"><path class="cls-1" d="M287.77,43.7,286.91,47,268,43.7l6.61-18,3.28.91-5.43,14.47Z"/><path class="cls-1" d="M305.53,30.16a8.32,8.32,0,0,1,1.1,3.45,8.05,8.05,0,0,1-.54,3.65,11.29,11.29,0,0,1-2.37,3.61,18.34,18.34,0,0,1-4.32,3.33c-1,.57-1.89,1-2.71,1.43s-1.61.73-2.35,1l-1.71-3c.87-.31,1.76-.69,2.68-1.11s1.82-.91,2.74-1.43A15.55,15.55,0,0,0,301,39a7,7,0,0,0,1.6-2.2,4.22,4.22,0,0,0,.34-2.22,5.91,5.91,0,0,0-.78-2.23,4,4,0,0,0-1.49-1.52,4.29,4.29,0,0,0-2-.53,7.47,7.47,0,0,0-2.42.37,13.14,13.14,0,0,0-2.66,1.2l-2.82,1.63-1.57-2.71,2.86-1.66A7.61,7.61,0,0,0,294,27.65,5.2,5.2,0,0,0,295,25.9a4.22,4.22,0,0,0,.22-1.94,5.18,5.18,0,0,0-.7-2,3.91,3.91,0,0,0-2.89-2.2,6.75,6.75,0,0,0-4.09,1.15,16.24,16.24,0,0,0-2.44,1.73A26.85,26.85,0,0,0,282.72,25l-1.66-2.88a15.75,15.75,0,0,1,1.14-1.2c.41-.4.84-.78,1.28-1.15s.89-.7,1.34-1,.91-.61,1.35-.87a14.79,14.79,0,0,1,3.72-1.58,8.34,8.34,0,0,1,3.21-.22,6,6,0,0,1,2.63,1.06,7.2,7.2,0,0,1,2,2.26,6.65,6.65,0,0,1,1,4.2,8.73,8.73,0,0,1-1.66,4,8,8,0,0,1,4.61-.3,6.42,6.42,0,0,1,2.19,1A5.59,5.59,0,0,1,305.53,30.16Z"/></g><g id="_4" data-name="4"><path class="cls-1" d="M223.32,42.24l-1.42,3.1-18.15-6.55,9.69-16.68,3.09,1.47L208.62,37Z"/><path class="cls-1" d="M244.76,32.5a8.07,8.07,0,0,1-.68,7.14,11.74,11.74,0,0,1-3,3.17,18.65,18.65,0,0,1-4.87,2.53c-1.07.39-2,.71-2.93.95s-1.72.45-2.5.61l-1.18-3.23c.91-.16,1.86-.38,2.84-.64s2-.58,3-.94a15.2,15.2,0,0,0,3.33-1.62,7,7,0,0,0,2-1.9,4.31,4.31,0,0,0,.72-2.14,5.87,5.87,0,0,0-.38-2.35,3.89,3.89,0,0,0-1.21-1.76,4.22,4.22,0,0,0-1.9-.88,7.14,7.14,0,0,0-2.46-.06,13.61,13.61,0,0,0-2.84.72l-3.09,1.12-1.08-3,3.13-1.13A7.85,7.85,0,0,0,233.73,28a5.25,5.25,0,0,0,1.38-1.54,4.24,4.24,0,0,0,.56-1.88,5.32,5.32,0,0,0-.34-2.14,4,4,0,0,0-2.48-2.69,6.82,6.82,0,0,0-4.26.43,16.27,16.27,0,0,0-2.71,1.29,26.05,26.05,0,0,0-2.82,1.94l-1.14-3.15a14.55,14.55,0,0,1,1.34-1c.48-.33,1-.63,1.47-.91s1-.55,1.51-.79,1-.44,1.49-.62a14.54,14.54,0,0,1,4-.91,8.26,8.26,0,0,1,3.22.34,6,6,0,0,1,2.43,1.51,7.21,7.21,0,0,1,1.58,2.59,6.71,6.71,0,0,1,.22,4.33,8.69,8.69,0,0,1-2.35,3.69,7.79,7.79,0,0,1,2.32-.1,7.88,7.88,0,0,1,2.31.61,6.49,6.49,0,0,1,2,1.35A5.61,5.61,0,0,1,244.76,32.5Z"/></g><g id="_3" data-name="3"><path class="cls-1" d="M157.09,43.36l-2,2.86L138,36.4l12.72-15.08,2.85,2L143.22,35.43Z"/><path class="cls-1" d="M181.63,35a8.47,8.47,0,0,1-.14,3.72A8.38,8.38,0,0,1,179.67,42a11.69,11.69,0,0,1-3.56,2.67,19,19,0,0,1-5.35,1.69c-1.16.2-2.2.35-3.13.43S165.82,47,165,47l-.61-3.46c1,0,1.94,0,3-.14s2.09-.23,3.15-.42a15.38,15.38,0,0,0,3.65-1,7,7,0,0,0,2.32-1.57,4.31,4.31,0,0,0,1.11-2,6.22,6.22,0,0,0,0-2.44,4,4,0,0,0-.9-2A4.46,4.46,0,0,0,175,32.7a7.43,7.43,0,0,0-2.47-.49,13.06,13.06,0,0,0-3,.22L166.2,33l-.56-3.18,3.35-.59a8.08,8.08,0,0,0,2.33-.76A5.82,5.82,0,0,0,173,27.17a4.35,4.35,0,0,0,.89-1.8,5.27,5.27,0,0,0,0-2.21,4,4,0,0,0-2-3.15,7.08,7.08,0,0,0-4.37-.33,17.05,17.05,0,0,0-3,.82A28,28,0,0,0,161.39,22l-.6-3.37a16.77,16.77,0,0,1,1.53-.76q.81-.36,1.65-.66c.55-.19,1.1-.37,1.66-.52s1.08-.27,1.6-.36a15,15,0,0,1,4.15-.22,8.46,8.46,0,0,1,3.19.92,6.08,6.08,0,0,1,2.17,1.95,7.29,7.29,0,0,1,1.13,2.89,6.86,6.86,0,0,1-.54,4.4,9,9,0,0,1-3,3.3,7.72,7.72,0,0,1,2.36.32,7.83,7.83,0,0,1,2.22,1,6.69,6.69,0,0,1,1.76,1.72A5.7,5.7,0,0,1,181.63,35Z"/></g><g id="_2" data-name="2"><path class="cls-1" d="M91.56,42.88,89,45.42l-15.54-13L89,19.48l2.52,2.57L79,32.41Z"/><path class="cls-1" d="M118.3,37.45a8.72,8.72,0,0,1-.81,3.73,8.43,8.43,0,0,1-2.43,3A11.8,11.8,0,0,1,111,46.29a19.52,19.52,0,0,1-5.71.75c-1.2,0-2.28,0-3.23-.11s-1.85-.18-2.68-.3V43c.95.17,2,.3,3,.39s2.15.14,3.26.14a16,16,0,0,0,3.87-.4A7.27,7.27,0,0,0,112.15,42a4.47,4.47,0,0,0,1.48-1.85,6.15,6.15,0,0,0,.46-2.45,4.14,4.14,0,0,0-.55-2.17A4.63,4.63,0,0,0,112,34a7.82,7.82,0,0,0-2.41-.94,14.54,14.54,0,0,0-3.06-.31h-3.45v-3.3h3.49a8.14,8.14,0,0,0,2.49-.36A5.52,5.52,0,0,0,111,28a4.45,4.45,0,0,0,1.22-1.65,5.48,5.48,0,0,0,.43-2.23,4.13,4.13,0,0,0-1.48-3.54,7.14,7.14,0,0,0-4.34-1.11,17.29,17.29,0,0,0-3.15.3,27.33,27.33,0,0,0-3.46.9V17.18a17.35,17.35,0,0,1,1.67-.5c.59-.14,1.19-.27,1.78-.37s1.18-.17,1.77-.23,1.15-.08,1.69-.08a15.4,15.4,0,0,1,4.23.52A8.78,8.78,0,0,1,114.37,18a6.34,6.34,0,0,1,1.85,2.36,7.59,7.59,0,0,1,.62,3.12,6.94,6.94,0,0,1-1.33,4.34,9,9,0,0,1-3.64,2.8,8.36,8.36,0,0,1,2.32.74,8,8,0,0,1,2.06,1.42,6.94,6.94,0,0,1,1.48,2.05A5.88,5.88,0,0,1,118.3,37.45Z"/></g><g id="_1-2" data-name="1"><polygon class="cls-26" points="25.14 19.5 9.63 32.45 25.14 45.4 27.66 42.86 15.08 32.4 27.66 22.06 25.14 19.5"/><path class="cls-26" d="M53.8,34.83a6.82,6.82,0,0,0-1.47-2,8.14,8.14,0,0,0-2.06-1.42A8.36,8.36,0,0,0,48,30.63a9.16,9.16,0,0,0,3.64-2.79,7,7,0,0,0,1.33-4.34,7.46,7.46,0,0,0-.63-3.12A6.18,6.18,0,0,0,50.45,18a8.61,8.61,0,0,0-3.05-1.49A15.4,15.4,0,0,0,43.17,16a16.25,16.25,0,0,0-1.68.08c-.59,0-1.18.13-1.77.23s-1.18.22-1.78.37a17.35,17.35,0,0,0-1.67.5v3.5a27.77,27.77,0,0,1,3.46-.9,17.26,17.26,0,0,1,3.14-.3,7.14,7.14,0,0,1,4.34,1.11,4.12,4.12,0,0,1,1.48,3.53,5.41,5.41,0,0,1-.43,2.23A4.29,4.29,0,0,1,47,28a5.52,5.52,0,0,1-1.92,1,8,8,0,0,1-2.48.36H39.16v3.3H42.6a13.88,13.88,0,0,1,3,.31,7.63,7.63,0,0,1,2.41.94,4.57,4.57,0,0,1,1.55,1.54,4.15,4.15,0,0,1,.56,2.17,6.33,6.33,0,0,1-.46,2.45A4.47,4.47,0,0,1,48.23,42a7.12,7.12,0,0,1-2.62,1.16,16,16,0,0,1-3.87.41c-1.11,0-2.19,0-3.25-.14s-2.07-.22-3-.39v3.6c.83.12,1.73.22,2.68.3s2,.11,3.23.11a19.49,19.49,0,0,0,5.7-.75,12,12,0,0,0,4.07-2.05,8.49,8.49,0,0,0,2.42-3,8.72,8.72,0,0,0,.81-3.73A5.94,5.94,0,0,0,53.8,34.83Z"/></g></svg>